<svg width="28" height="28" viewBox="0 0 28 28" fill="none" xmlns="http://www.w3.org/2000/svg">
<g clip-path="url(#clip0_101_490)">
<path d="M9.33332 12.5533H8.65665C7.73324 12.52 6.81282 12.6767 5.95252 13.0139C5.09221 13.351 4.31038 13.8614 3.65554 14.5133L3.46887 14.7311V21.1711H6.64221V17.5156L7.06998 17.0333L7.26443 16.8078C8.27704 15.7675 9.5377 15.002 10.9278 14.5833C10.2318 14.0538 9.68291 13.3549 9.33332 12.5533Z" fill="#A45EFC"/>
<path d="M24.3755 14.49C23.7207 13.8381 22.9388 13.3277 22.0785 12.9906C21.2182 12.6534 20.2978 12.4966 19.3744 12.53C19.0912 12.5308 18.8082 12.5464 18.5266 12.5767C18.1705 13.3287 17.6366 13.9827 16.9711 14.4822C18.4551 14.8928 19.7994 15.6994 20.86 16.8156L21.0544 17.0333L21.4744 17.5156V21.1789H24.5388V14.7078L24.3755 14.49Z" fill="#A45EFC"/>
<path d="M8.63328 11.0367H8.87439C8.76236 10.0747 8.93114 9.10096 9.36037 8.23285C9.78959 7.36474 10.4609 6.63942 11.2933 6.14444C10.9915 5.68349 10.5753 5.3088 10.0852 5.05707C9.59519 4.80533 9.04817 4.68518 8.49774 4.70838C7.9473 4.73157 7.41233 4.89732 6.9452 5.18939C6.47807 5.48147 6.09481 5.88985 5.83293 6.37455C5.57105 6.85925 5.43954 7.40365 5.45128 7.95445C5.46302 8.50525 5.61761 9.04355 5.8999 9.51666C6.18219 9.98976 6.58251 10.3814 7.06166 10.6533C7.5408 10.9253 8.08235 11.0681 8.63328 11.0678V11.0367Z" fill="#A45EFC"/>
<path d="M19.0011 10.4533C19.0105 10.6321 19.0105 10.8112 19.0011 10.99C19.1503 11.0137 19.3011 11.0267 19.4522 11.0289H19.6C20.1485 10.9996 20.68 10.8289 21.143 10.5332C21.6059 10.2375 21.9843 9.82703 22.2415 9.34167C22.4987 8.85631 22.6258 8.31264 22.6105 7.76357C22.5951 7.21451 22.4379 6.67876 22.1541 6.2085C21.8702 5.73824 21.4695 5.34948 20.9908 5.08008C20.5121 4.81068 19.9719 4.66981 19.4226 4.67119C18.8733 4.67257 18.3337 4.81616 17.8564 5.08796C17.3791 5.35977 16.9803 5.75054 16.6989 6.22222C17.4028 6.68184 17.9817 7.30902 18.3835 8.04749C18.7853 8.78596 18.9975 9.61263 19.0011 10.4533Z" fill="#A45EFC"/>
<path d="M13.8989 13.9378C15.819 13.9378 17.3756 12.3812 17.3756 10.4611C17.3756 8.541 15.819 6.98444 13.8989 6.98444C11.9788 6.98444 10.4222 8.541 10.4222 10.4611C10.4222 12.3812 11.9788 13.9378 13.8989 13.9378Z" fill="#A45EFC"/>
<path d="M14.0855 15.7889C13.0698 15.7479 12.0562 15.9128 11.1059 16.2737C10.1555 16.6346 9.28802 17.184 8.55553 17.8889L8.36108 18.1067V23.03C8.36412 23.1904 8.39872 23.3486 8.46291 23.4956C8.52709 23.6426 8.61961 23.7755 8.73517 23.8867C8.85074 23.9979 8.98708 24.0853 9.13642 24.1438C9.28576 24.2023 9.44516 24.2309 9.60553 24.2278H18.5422C18.7026 24.2309 18.862 24.2023 19.0113 24.1438C19.1606 24.0853 19.297 23.9979 19.4125 23.8867C19.5281 23.7755 19.6206 23.6426 19.6848 23.4956C19.749 23.3486 19.7836 23.1904 19.7866 23.03V18.1222L19.6 17.8889C18.8722 17.1818 18.0077 16.6309 17.0595 16.2697C16.1113 15.9086 15.0992 15.745 14.0855 15.7889Z" fill="#A45EFC"/>
</g>
<defs>
<clipPath id="clip0_101_490">
<rect width="28" height="28" fill="white"/>
</clipPath>
</defs>
</svg>
