<svg width="19" height="11" viewBox="0 0 19 11" fill="none" xmlns="http://www.w3.org/2000/svg">
<path d="M0.328 11V0.535999H2.232L5.496 6.424L6.568 8.648H6.632C6.58933 8.11467 6.536 7.53333 6.472 6.904C6.41867 6.27467 6.392 5.66667 6.392 5.08V0.535999H8.168V11H6.264L3 5.112L1.928 2.888H1.864C1.90667 3.44267 1.95467 4.024 2.008 4.632C2.072 5.24 2.104 5.83733 2.104 6.424V11H0.328ZM10.828 11V0.535999H14.124C14.9027 0.535999 15.596 0.637333 16.204 0.839999C16.812 1.04267 17.292 1.37867 17.644 1.848C17.996 2.31733 18.172 2.95733 18.172 3.768C18.172 4.536 17.996 5.17067 17.644 5.672C17.292 6.17333 16.8173 6.54667 16.22 6.792C15.6227 7.03733 14.9453 7.16 14.188 7.16H12.684V11H10.828ZM12.684 5.672H14.044C15.58 5.672 16.348 5.03733 16.348 3.768C16.348 3.10667 16.1453 2.65333 15.74 2.408C15.3453 2.152 14.7587 2.024 13.98 2.024H12.684V5.672Z" fill="#3399FF"/>
</svg>
