<svg width="20" height="21" viewBox="0 0 20 21" fill="none" xmlns="http://www.w3.org/2000/svg">
<path fill-rule="evenodd" clip-rule="evenodd" d="M9.7031 0.466492C10.1667 0.466492 10.6223 0.502037 11.0675 0.570653L11.7376 2.68441C12.3254 2.85925 12.8832 3.10795 13.4013 3.42023L15.3277 2.45392C16.0095 2.99942 16.616 3.64172 17.1282 4.36106L16.1659 6.34859C16.4564 6.89251 16.6854 7.47693 16.843 8.09167L18.8616 8.8248C18.9131 9.23563 18.9396 9.65461 18.9396 10.08C18.9396 10.5625 18.9055 11.0367 18.8396 11.5002L16.8087 12.1976C16.6407 12.8094 16.4018 13.39 16.1017 13.9292L17.0302 15.9343C16.5061 16.6438 15.8889 17.2751 15.1978 17.8083L13.2882 16.8066C12.7656 17.109 12.2041 17.3473 11.6135 17.5114L10.9091 19.6124C10.5144 19.666 10.1119 19.6936 9.7031 19.6936C9.23952 19.6936 8.78392 19.658 8.33867 19.5894L7.66855 17.4757C7.08078 17.3008 6.52296 17.0521 6.00494 16.7398L4.07845 17.7062C3.39674 17.1607 2.79024 16.5184 2.27795 15.799L3.24031 13.8115C2.94958 13.2672 2.72048 12.6823 2.56284 12.067L0.544404 11.3339C0.493045 10.9235 0.466553 10.505 0.466553 10.08C0.466553 9.59754 0.500705 9.12334 0.56663 8.65992L2.5975 7.96245C2.76548 7.35069 3.00442 6.7701 3.30446 6.23093L2.37605 4.22582C2.90015 3.51628 3.51726 2.88503 4.20839 2.35183L6.11798 3.35346C6.64096 3.05086 7.20291 2.81242 7.79402 2.64834L8.4984 0.547521C8.8927 0.494065 9.2948 0.466492 9.7031 0.466492V0.466492Z" stroke="black" stroke-width="0.933" stroke-linecap="round" stroke-linejoin="round"/>
<path d="M9.70291 14.1949C11.8891 14.1949 13.6614 12.3502 13.6614 10.0748C13.6614 7.79931 11.8891 5.95468 9.70291 5.95468C7.51667 5.95468 5.74438 7.79931 5.74438 10.0748C5.74438 12.3502 7.51667 14.1949 9.70291 14.1949Z" fill="#FF9068"/>
</svg>
